<svg xmlns="http://www.w3.org/2000/svg" viewBox="0 0 632.5 169"><g id="Layer_2" data-name="Layer 2"><g id="katman_1" data-name="katman 1"><path d="M10.8,20.2l82,27.6c8.6,2.5,14.9,11.2,14.9,21.3v91.4L96,169V69.1a13.29,13.29,0,0,0-8.5-11.7L.1,28.7ZM.1,46.7,11.8,51v68c.2,5.5,3.5,10.3,8.5,11.7l57.5,19.1v11.7L14.9,141.3C6.3,137.9,0,129.3,0,120V46.7ZM38.5,0l84.2,27.6a22.93,22.93,0,0,1,14.9,21.3v89.3l-11.7,8.5V49.9c-.2-5.5-3.5-10.3-8.5-11.7L27.9,8.4ZM36.3,58.4,48,62.7v33c.2,5.4,3.4,10.2,8.5,11.7l21.3,7.4v11.7L51.2,118c-8.7-3.5-14.9-12.2-14.9-21.3Z"/><path d="M230.5,96.9c0,14,11.3,24,28.2,24,13.8,0,27.7-7.3,28-22.8.2-7.4-2.5-18-21.3-23.4l-9.2-2.9c-7.6-2.1-8.3-5.9-8.3-7.9,0-4.6,4.3-7.8,10-7.8,6.5,0,10,3.6,10,8.8h16.5c0-14.9-11.3-23.8-26.3-23.8s-26.7,9.4-26.7,23.2c0,7,2.9,17,20.1,22.3l9.4,2.6c7.9,2.3,9.5,5.3,9.4,8.8-.1,5.1-4.7,8.2-11.4,8.2-7.4,0-11.4-4.4-11.6-9.4H230.5Z"/><path d="M320.6,93.6c0-7.6,5.6-12.7,12.2-12.7s12.2,5,12.2,12.7-5.5,12.5-12.2,12.5C326.4,106.1,320.6,101.4,320.6,93.6ZM304.7,67.1v78.4h15.6V113.3c2.6,4.8,8.9,7.6,15.4,7.6,13.5,0,25.5-10.7,25.5-27.6,0-16.6-11.9-27.3-25.5-27.3-6.5,0-12.8,2.8-15.4,7.7V67.2H304.7Z"/><path d="M418.6,119.7h15.6V67.1H418.6V73c-4.1-5.9-11.9-7-15.3-7a26.85,26.85,0,0,0-26.8,27.4,26.85,26.85,0,0,0,26.8,27.4c4.1,0,11.9-1.9,15.3-7Zm-26-26.4c0-7.6,6.6-12.5,13.2-12.5,6.4,0,12.7,4.6,12.7,12.5s-6.3,12.5-12.7,12.5S392.6,100.9,392.6,93.3Z"/><path d="M476.1,67.1V46.9H460.5V67.1h-9.6V79.5h9.6v40.2h15.6V79.5h11V67.1Z"/><path d="M519.4,67.1H503.8v52.6h15.6ZM501.8,47.6c0,5.2,4.5,9.2,9.8,9.2a9.17,9.17,0,1,0-9.8-9.2Z"/><path d="M579.8,119.7h15.6V67.1H579.8V73c-4.1-5.9-11.9-7-15.3-7a26.85,26.85,0,0,0-26.8,27.4,26.85,26.85,0,0,0,26.8,27.4c4.1,0,11.9-1.9,15.3-7ZM553.9,93.3c0-7.6,6.6-12.5,13.2-12.5,6.4,0,12.7,4.6,12.7,12.5s-6.3,12.5-12.7,12.5C560.5,105.8,553.9,100.9,553.9,93.3Z"/><path d="M616.9,38.4v81.3h15.6V38.4Z"/></g></g></svg>